<svg width="68" height="48" viewBox="0 0 68 48" fill="none" xmlns="http://www.w3.org/2000/svg">
<g filter="url(#filter0_i_400_1396)">
<rect x="0.00390625" y="0.703125" width="67.8482" height="46.4546" rx="4.52321" fill="white"/>
</g>
<path fill-rule="evenodd" clip-rule="evenodd" d="M32.0618 31.2032V25.3558H35.0843C36.3228 25.3558 37.3682 24.9414 38.2204 24.1242L38.4249 23.917C39.9816 22.2249 39.8794 19.589 38.2204 18.0236C37.3909 17.1948 36.2547 16.7459 35.0843 16.7689H30.2324V31.2032H32.0618ZM32.0625 23.5836V18.542H35.1309C35.7901 18.542 36.4151 18.7952 36.8811 19.2556C37.8698 20.2225 37.8925 21.834 36.9379 22.8354C36.4719 23.3304 35.8128 23.6066 35.1309 23.5836H32.0625ZM46.9568 22.0989C46.1728 21.3737 45.1047 21.0054 43.7525 21.0054C42.014 21.0054 40.7073 21.65 39.8438 22.9276L41.4573 23.9521C42.0481 23.0773 42.8549 22.6399 43.8775 22.6399C44.5252 22.6399 45.1502 22.8816 45.6388 23.319C46.116 23.7334 46.3887 24.3319 46.3887 24.965V25.3909C45.6842 24.9995 44.7979 24.7924 43.7071 24.7924C42.4345 24.7924 41.4118 25.0916 40.6505 25.7017C39.8892 26.3118 39.5029 27.1175 39.5029 28.1419C39.4802 29.0743 39.8778 29.9606 40.5823 30.5592C41.2982 31.2038 42.2072 31.5261 43.2753 31.5261C44.5366 31.5261 45.5365 30.962 46.2978 29.834H46.3773V31.2038H48.1272V25.1147C48.1272 23.837 47.7409 22.824 46.9568 22.0989ZM41.9932 29.385C41.6181 29.1088 41.3909 28.6598 41.3909 28.1764C41.3909 27.6354 41.6409 27.1865 42.1296 26.8297C42.6296 26.4728 43.2546 26.2887 43.9933 26.2887C45.0161 26.2772 45.8117 26.5074 46.3799 26.9678C46.3799 27.7505 46.073 28.4296 45.4707 29.0052C44.9252 29.5577 44.1865 29.8685 43.4137 29.8685C42.9023 29.88 42.4023 29.7073 41.9932 29.385ZM52.0564 35.5432L58.1695 21.3276H56.181L53.3517 28.4182H53.3176L50.4201 21.3276H48.4316L52.4427 30.5707L50.1701 35.5432H52.0564Z" fill="#3C4043"/>
<path d="M25.7364 24.0907C25.7364 23.5267 25.691 22.9627 25.6001 22.4102H17.8848V25.5986H22.3049C22.1231 26.623 21.5322 27.5439 20.6686 28.1194V30.1913H23.3048C24.8501 28.7525 25.7364 26.623 25.7364 24.0907Z" fill="#4285F4"/>
<path d="M17.8863 32.1943C20.0907 32.1943 21.9542 31.4576 23.3063 30.1914L20.6702 28.1195C19.9316 28.626 18.9885 28.9138 17.8863 28.9138C15.7501 28.9138 13.9434 27.4519 13.2958 25.4951H10.5801V27.6361C11.9663 30.4332 14.7956 32.1943 17.8863 32.1943Z" fill="#34A853"/>
<path d="M13.2933 25.4949C12.9523 24.4704 12.9523 23.3539 13.2933 22.3179V20.1885H10.5771C9.40658 22.5251 9.40658 25.2877 10.5771 27.6243L13.2933 25.4949Z" fill="#FBBC04"/>
<path d="M17.8863 18.8992C19.0567 18.8762 20.1816 19.3251 21.0224 20.1423L23.3631 17.7711C21.8746 16.3669 19.9202 15.5956 17.8863 15.6187C14.7957 15.6187 11.9663 17.3913 10.5801 20.1884L13.2958 22.3293C13.9434 20.361 15.7501 18.8992 17.8863 18.8992Z" fill="#EA4335"/>
<defs>
<filter id="filter0_i_400_1396" x="0.00390625" y="0.703125" width="67.8481" height="50.9778" filterUnits="userSpaceOnUse" color-interpolation-filters="sRGB">
<feFlood flood-opacity="0" result="BackgroundImageFix"/>
<feBlend mode="normal" in="SourceGraphic" in2="BackgroundImageFix" result="shape"/>
<feColorMatrix in="SourceAlpha" type="matrix" values="0 0 0 0 0 0 0 0 0 0 0 0 0 0 0 0 0 0 127 0" result="hardAlpha"/>
<feOffset dy="4.52321"/>
<feGaussianBlur stdDeviation="2.2616"/>
<feComposite in2="hardAlpha" operator="arithmetic" k2="-1" k3="1"/>
<feColorMatrix type="matrix" values="0 0 0 0 0 0 0 0 0 0 0 0 0 0 0 0 0 0 0.15 0"/>
<feBlend mode="normal" in2="shape" result="effect1_innerShadow_400_1396"/>
</filter>
</defs>
</svg>
