<svg width="69" height="48" viewBox="0 0 69 48" fill="none" xmlns="http://www.w3.org/2000/svg">
<g filter="url(#filter0_i_400_1374)">
<g clip-path="url(#clip0_400_1374)">
<rect x="0.307617" y="0.703125" width="67.8482" height="46.4546" rx="4.52321" fill="white"/>
<g clip-path="url(#clip1_400_1374)">
<path d="M54.4513 14.8821C54.2654 14.3175 53.919 13.8283 53.4601 13.4823C53.0012 13.1364 52.4525 12.9508 51.8901 12.9512H51.8657C51.5003 12.9507 51.1385 13.0291 50.8023 13.1816C50.4662 13.3341 50.1625 13.5574 49.9098 13.8382C49.6572 13.5575 49.3537 13.3341 49.0176 13.1817C48.6815 13.0292 48.3199 12.9508 47.9545 12.9512H47.9302C47.2809 12.9504 46.6532 13.1983 46.1617 13.6495V13.4289C46.1547 13.3218 46.1099 13.2215 46.0362 13.1481C45.9625 13.0747 45.8653 13.0338 45.7644 13.0336H43.9528C43.9001 13.0336 43.8479 13.0446 43.7992 13.0661C43.7505 13.0876 43.7062 13.1191 43.669 13.1587C43.6317 13.1984 43.6022 13.2455 43.5821 13.2974C43.562 13.3492 43.5517 13.4047 43.5518 13.4608V23.942C43.5518 24.0552 43.594 24.1637 43.6692 24.2437C43.7444 24.3237 43.8465 24.3686 43.9528 24.3686H45.7644C45.8612 24.3684 45.9546 24.3309 46.0274 24.2631C46.1002 24.1954 46.1475 24.1018 46.1604 23.9998V16.4775C46.1604 16.4522 46.1604 16.427 46.1604 16.4017C46.1734 16.2319 46.2438 16.0727 46.3587 15.954C46.4736 15.8352 46.6252 15.7648 46.7851 15.7558H47.1206C47.26 15.7663 47.3932 15.8212 47.5029 15.9133C47.5816 15.9814 47.6446 16.0676 47.6873 16.1655C47.73 16.2634 47.7511 16.3703 47.749 16.4781L47.7559 23.9639C47.7559 24.0772 47.7981 24.1857 47.8733 24.2658C47.9485 24.3459 48.0505 24.391 48.1569 24.3912H49.9685C50.0719 24.3918 50.1716 24.35 50.2467 24.2743C50.3218 24.1987 50.3665 24.0951 50.3715 23.9852V16.4695C50.3691 16.3507 50.3949 16.2332 50.4466 16.1279C50.4982 16.0225 50.574 15.9328 50.667 15.8668C50.767 15.798 50.8817 15.7569 51.0005 15.7472H51.3353C51.5079 15.7568 51.6701 15.8377 51.7875 15.9726C51.9048 16.1075 51.9681 16.2857 51.9638 16.4695L51.9713 23.9453C51.9713 24.0585 52.0135 24.167 52.0887 24.247C52.164 24.327 52.266 24.3719 52.3723 24.3719H54.1839C54.2367 24.372 54.2889 24.3611 54.3376 24.3396C54.3863 24.3182 54.4306 24.2868 54.4679 24.2472C54.5052 24.2076 54.5348 24.1606 54.555 24.1088C54.5752 24.0569 54.5856 24.0014 54.5856 23.9453V15.9054C54.6017 15.5587 54.555 15.212 54.4482 14.8841" fill="#00BAF2"/>
<path d="M42.1642 13.0623H41.1266V11.2729C41.1269 11.2216 41.1176 11.1707 41.0993 11.1232C41.081 11.0757 41.0541 11.0325 41.0201 10.996C40.9861 10.9596 40.9456 10.9307 40.9011 10.9109C40.8566 10.8912 40.8088 10.8809 40.7605 10.8809C40.7374 10.8811 40.7144 10.884 40.6918 10.8895C39.5405 11.2217 39.7723 12.9201 37.6715 13.0649H37.4672C37.4377 13.065 37.4084 13.0686 37.3797 13.0756C37.2912 13.0969 37.212 13.1497 37.1553 13.2251C37.0985 13.3006 37.0676 13.3942 37.0674 13.4909V15.4178C37.0674 15.531 37.1096 15.6396 37.1848 15.7197C37.26 15.7998 37.362 15.8449 37.4684 15.845H38.5635V24.0279C38.5634 24.0833 38.5736 24.1382 38.5935 24.1894C38.6133 24.2407 38.6425 24.2872 38.6792 24.3264C38.716 24.3657 38.7597 24.3968 38.8078 24.4181C38.8559 24.4394 38.9075 24.4504 38.9595 24.4505H40.7537C40.8589 24.4503 40.9598 24.4057 41.0342 24.3265C41.1086 24.2473 41.1503 24.1399 41.1503 24.0279V15.8457H42.1667C42.2194 15.8456 42.2715 15.8345 42.3201 15.813C42.3688 15.7915 42.4129 15.76 42.4501 15.7203C42.4873 15.6806 42.5168 15.6335 42.5369 15.5817C42.5569 15.53 42.5672 15.4745 42.5671 15.4185V13.4915C42.5671 13.3786 42.5249 13.2702 42.4499 13.1904C42.3748 13.1105 42.2729 13.0656 42.1667 13.0656" fill="#00BAF2"/>
<path d="M35.6395 13.0622H33.8278C33.7216 13.0622 33.6197 13.1071 33.5445 13.1869C33.4693 13.2668 33.427 13.3751 33.4268 13.4881V17.4796C33.4252 17.5981 33.3798 17.7113 33.3004 17.7945C33.2211 17.8778 33.1141 17.9246 33.0027 17.9248H32.2418C32.1859 17.9248 32.1307 17.9131 32.0791 17.8903C32.0275 17.8676 31.9806 17.8342 31.9412 17.7922C31.9017 17.7502 31.8705 17.7003 31.8491 17.6454C31.8278 17.5905 31.8169 17.5317 31.817 17.4723L31.8089 13.4855C31.8087 13.3725 31.7664 13.2641 31.6912 13.1843C31.616 13.1044 31.5141 13.0596 31.4078 13.0596H29.5962C29.5436 13.0595 29.4914 13.0704 29.4427 13.0918C29.394 13.1131 29.3497 13.1445 29.3125 13.184C29.2752 13.2236 29.2455 13.2706 29.2253 13.3223C29.2051 13.374 29.1946 13.4295 29.1945 13.4855V17.859C29.18 18.2367 29.2391 18.6135 29.3681 18.9657C29.4972 19.318 29.6934 19.6379 29.9445 19.9055C30.1955 20.1731 30.4959 20.3825 30.8268 20.5205C31.1577 20.6586 31.5118 20.7222 31.867 20.7075C31.867 20.7075 33.0395 20.7075 33.0757 20.7155C33.1793 20.7269 33.2752 20.7785 33.3451 20.8604C33.4151 20.9424 33.4541 21.049 33.4547 21.1596C33.4553 21.2703 33.4175 21.3773 33.3485 21.4602C33.2795 21.5431 33.1841 21.5959 33.0807 21.6085L33.0508 21.6139L30.3971 21.6245C30.2907 21.6245 30.1887 21.6694 30.1135 21.7494C30.0383 21.8294 29.9961 21.9379 29.9961 22.0511V23.978C29.9961 24.0911 30.0383 24.1996 30.1135 24.2797C30.1887 24.3596 30.2907 24.4046 30.3971 24.4046H33.3662C33.7215 24.4198 34.0758 24.3567 34.4069 24.2191C34.738 24.0814 35.0388 23.8724 35.2902 23.605C35.5417 23.3376 35.7383 23.0178 35.8677 22.6656C35.9972 22.3134 36.0566 21.9365 36.0424 21.5587V13.4881C36.0424 13.4322 36.032 13.3767 36.0119 13.325C35.9917 13.2733 35.9621 13.2263 35.9249 13.1867C35.8876 13.1472 35.8434 13.1158 35.7948 13.0945C35.7461 13.0731 35.694 13.0621 35.6413 13.0622" fill="#002970"/>
<path d="M18.2373 13.0616H14.2717C14.1674 13.0616 14.0673 13.1057 13.9934 13.1842C13.9196 13.2627 13.8782 13.3692 13.8782 13.4802V15.3699C13.8778 15.3724 13.8778 15.3748 13.8782 15.3772C13.8782 15.3905 13.8782 15.3992 13.8782 15.4092V23.9641C13.8751 24.0721 13.9116 24.1772 13.98 24.2571C14.0485 24.3369 14.1435 24.3853 14.2449 24.392H16.0933C16.1997 24.392 16.3017 24.3471 16.3769 24.267C16.4521 24.187 16.4944 24.0785 16.4944 23.9654L16.5012 21.0318H18.2373C18.5652 21.0486 18.8929 20.9923 19.1993 20.8664C19.5056 20.7405 19.7837 20.5478 20.0159 20.3007C20.248 20.0537 20.429 19.7577 20.5472 19.4319C20.6654 19.106 20.7182 18.7574 20.7022 18.4085V15.6842C20.7183 15.3351 20.6656 14.9864 20.5474 14.6602C20.4293 14.3341 20.2484 14.0379 20.0162 13.7905C19.7842 13.5431 19.506 13.3501 19.1996 13.2237C18.8933 13.0974 18.5655 13.0406 18.2373 13.0569V13.0616ZM18.078 16.5932V17.7839C18.078 17.9038 18.0332 18.0188 17.9536 18.1036C17.8739 18.1885 17.7659 18.2363 17.6532 18.2364H16.5012V15.8576H17.6532C17.7659 15.8578 17.8739 15.9056 17.9536 15.9904C18.0332 16.0752 18.078 16.1903 18.078 16.3101V16.5932Z" fill="#002970"/>
<path d="M25.3175 13.0725H22.8006C22.6975 13.069 22.5974 13.109 22.5218 13.1836C22.4463 13.2583 22.4015 13.3616 22.397 13.4711V14.2213V14.2366C22.397 14.2413 22.397 14.2466 22.397 14.2466V15.2811C22.4011 15.3976 22.4485 15.5077 22.5287 15.5871C22.6089 15.6666 22.7154 15.709 22.8249 15.7051H25.2219C25.317 15.7183 25.4049 15.7662 25.4706 15.8406C25.5363 15.9149 25.5758 16.0112 25.5823 16.1131V16.3616C25.5768 16.461 25.5388 16.5553 25.4748 16.6282C25.4108 16.701 25.3249 16.7477 25.2319 16.7602H24.045C23.6987 16.7329 23.3509 16.7821 23.0233 16.9046C22.6958 17.0272 22.3956 17.2204 22.1416 17.4722C21.8877 17.7241 21.6854 18.0291 21.5476 18.3681C21.4097 18.707 21.3393 19.0727 21.3407 19.442V21.6892C21.3217 22.0471 21.3745 22.4053 21.4954 22.7398C21.6165 23.0744 21.803 23.3778 22.0427 23.6298C22.2824 23.8819 22.5697 24.0768 22.8856 24.2017C23.2015 24.3266 23.5388 24.3787 23.8751 24.3543H27.1659C27.4402 24.364 27.7068 24.2575 27.9072 24.0581C28.1077 23.8588 28.2255 23.5829 28.2347 23.2912V15.9695C28.2347 14.1941 27.3739 13.0725 25.3175 13.0725ZM25.6067 21.1284V21.4294C25.6064 21.4533 25.6039 21.4771 25.5992 21.5005C25.5955 21.5218 25.5898 21.5428 25.5823 21.5629C25.5514 21.6496 25.496 21.7241 25.4237 21.776C25.3515 21.828 25.266 21.855 25.1788 21.8533H24.4236C24.3139 21.8573 24.2074 21.8147 24.1273 21.7351C24.0471 21.6555 24 21.5453 23.9962 21.4287V21.0646V21.0513V20.0825V19.7775C24.0008 19.6615 24.0482 19.552 24.1282 19.4728C24.2082 19.3937 24.3143 19.3514 24.4236 19.3549H25.1794C25.2891 19.3512 25.3958 19.3938 25.476 19.4735C25.5562 19.5532 25.6034 19.6635 25.6073 19.7802L25.6067 21.1284Z" fill="#002970"/>
</g>
<rect width="67.8482" height="5.65401" transform="translate(0.307617 42.543)" fill="#002970"/>
<rect width="67.8482" height="4.52321" transform="translate(0.307617 38.02)" fill="#00BAF2"/>
</g>
</g>
<defs>
<filter id="filter0_i_400_1374" x="0.307617" y="0.703125" width="67.8481" height="50.9778" filterUnits="userSpaceOnUse" color-interpolation-filters="sRGB">
<feFlood flood-opacity="0" result="BackgroundImageFix"/>
<feBlend mode="normal" in="SourceGraphic" in2="BackgroundImageFix" result="shape"/>
<feColorMatrix in="SourceAlpha" type="matrix" values="0 0 0 0 0 0 0 0 0 0 0 0 0 0 0 0 0 0 127 0" result="hardAlpha"/>
<feOffset dy="4.52321"/>
<feGaussianBlur stdDeviation="2.2616"/>
<feComposite in2="hardAlpha" operator="arithmetic" k2="-1" k3="1"/>
<feColorMatrix type="matrix" values="0 0 0 0 0 0 0 0 0 0 0 0 0 0 0 0 0 0 0.15 0"/>
<feBlend mode="normal" in2="shape" result="effect1_innerShadow_400_1374"/>
</filter>
<clipPath id="clip0_400_1374">
<rect x="0.307617" y="0.703125" width="67.8482" height="46.4546" rx="4.52321" fill="white"/>
</clipPath>
<clipPath id="clip1_400_1374">
<rect width="40.7089" height="13.5696" fill="white" transform="translate(13.8779 10.8809)"/>
</clipPath>
</defs>
</svg>
