<svg width="69" height="48" viewBox="0 0 69 48" fill="none" xmlns="http://www.w3.org/2000/svg">
<g filter="url(#filter0_i_400_1357)">
<rect x="0.611328" y="0.703125" width="67.8482" height="46.4546" rx="4.52321" fill="white"/>
</g>
<path fill-rule="evenodd" clip-rule="evenodd" d="M19.8068 30.2041H16.7912C16.5848 30.2041 16.4093 30.3539 16.3771 30.5572L15.1575 38.2784C15.1332 38.4309 15.2514 38.5682 15.4062 38.5682H16.8458C17.0522 38.5682 17.2277 38.4184 17.2599 38.2147L17.5888 36.1322C17.6206 35.9282 17.7965 35.7787 18.0024 35.7787H18.9571C20.9436 35.7787 22.0899 34.8188 22.3895 32.9168C22.5244 32.0847 22.3952 31.4309 22.0048 30.9728C21.5763 30.4702 20.816 30.2041 19.8068 30.2041ZM20.1547 33.0242C19.9898 34.1047 19.163 34.1047 18.3636 34.1047H17.9085L18.2278 32.0867C18.2467 31.9649 18.3525 31.875 18.476 31.875H18.6846C19.2291 31.875 19.7429 31.875 20.0084 32.1849C20.1665 32.3699 20.2151 32.6446 20.1547 33.0242ZM28.8211 32.9895H27.377C27.254 32.9895 27.1476 33.0794 27.1287 33.2014L27.0648 33.6047L26.9638 33.4586C26.6512 33.0054 25.9541 32.8541 25.2583 32.8541C23.6624 32.8541 22.2995 34.0609 22.034 35.7538C21.8961 36.5981 22.0922 37.4056 22.5719 37.9687C23.0121 38.4865 23.6418 38.7022 24.3909 38.7022C25.6766 38.7022 26.3898 37.8767 26.3898 37.8767L26.3253 38.2774C26.301 38.4306 26.4192 38.568 26.573 38.568H27.8739C28.0808 38.568 28.2553 38.4182 28.2879 38.2145L29.0684 33.2793C29.0931 33.1275 28.9754 32.9895 28.8211 32.9895ZM26.8081 35.796C26.6687 36.6197 26.0139 37.1727 25.1789 37.1727C24.7596 37.1727 24.4243 37.0384 24.2093 36.784C23.9958 36.5313 23.9146 36.1715 23.9825 35.7709C24.1127 34.9541 24.7786 34.3832 25.6009 34.3832C26.0109 34.3832 26.3443 34.5191 26.5638 34.7758C26.7838 35.0352 26.8712 35.397 26.8081 35.796ZM35.0609 32.9893H36.5122C36.7154 32.9893 36.834 33.2169 36.7185 33.3834L31.8919 40.3398C31.8138 40.4524 31.685 40.5195 31.5475 40.5195H30.0981C29.894 40.5195 29.7749 40.2901 29.893 40.1232L31.3959 38.005L29.7975 33.3212C29.7422 33.1585 29.8626 32.9893 30.036 32.9893H31.462C31.6473 32.9893 31.8107 33.1108 31.8642 33.2878L32.7124 36.1167L34.714 33.1729C34.7924 33.058 34.9226 32.9893 35.0609 32.9893Z" fill="#253B80"/>
<path fill-rule="evenodd" clip-rule="evenodd" d="M50.7948 38.2784L52.0324 30.4159C52.0513 30.2939 52.1572 30.204 52.2803 30.2036H53.6736C53.8274 30.2036 53.9456 30.3413 53.9213 30.4938L52.7008 38.2146C52.669 38.4184 52.4935 38.5681 52.2868 38.5681H51.0425C50.8886 38.5681 50.7705 38.4308 50.7948 38.2784ZM41.3166 30.204H38.3005C38.0946 30.204 37.9191 30.3538 37.8869 30.5571L36.6672 38.2784C36.643 38.4308 36.7611 38.5681 36.9152 38.5681H38.4627C38.6066 38.5681 38.7296 38.4634 38.7521 38.3208L39.0981 36.1321C39.13 35.9281 39.3059 35.7786 39.5118 35.7786H40.4659C42.4528 35.7786 43.599 34.8187 43.8987 32.9167C44.034 32.0846 43.904 31.4308 43.5139 30.9728C43.0856 30.4701 42.3259 30.204 41.3166 30.204ZM41.6645 33.0241C41.5001 34.1046 40.6732 34.1046 39.8733 34.1046H39.4187L39.7385 32.0867C39.7574 31.9648 39.8623 31.875 39.9862 31.875H40.1947C40.7389 31.875 41.2532 31.875 41.5184 32.1849C41.6768 32.3699 41.7249 32.6445 41.6645 33.0241ZM50.3301 32.9895H48.8871C48.763 32.9895 48.6577 33.0793 48.6391 33.2014L48.5753 33.6046L48.4738 33.4585C48.1612 33.0054 47.4646 32.854 46.7688 32.854C45.1728 32.854 43.8104 34.0608 43.5449 35.7537C43.4074 36.5981 43.6026 37.4055 44.0824 37.9687C44.5233 38.4864 45.1522 38.7022 45.9013 38.7022C47.1871 38.7022 47.9 37.8766 47.9 37.8766L47.8358 38.2774C47.8115 38.4306 47.9296 38.5679 48.0845 38.5679H49.3847C49.5906 38.5679 49.7661 38.4182 49.7984 38.2144L50.5793 33.2792C50.6032 33.1274 50.485 32.9895 50.3301 32.9895ZM48.3173 35.7959C48.1788 36.6197 47.5232 37.1726 46.688 37.1726C46.2694 37.1726 45.9336 37.0384 45.7183 36.7839C45.5048 36.5312 45.4247 36.1714 45.4918 35.7708C45.6226 34.954 46.2876 34.3831 47.1099 34.3831C47.5201 34.3831 47.8533 34.519 48.0731 34.7757C48.2939 35.0351 48.3812 35.397 48.3173 35.7959Z" fill="#179BD7"/>
<path d="M30.9648 27.4413L31.3356 25.0901L30.5098 25.0709H26.5664L29.3069 7.72045C29.3152 7.66807 29.343 7.61923 29.3834 7.58455C29.4238 7.54987 29.4756 7.53076 29.5295 7.53076H36.1786C38.3861 7.53076 39.9094 7.98942 40.7048 8.8947C41.0776 9.31939 41.3151 9.76318 41.43 10.2516C41.5504 10.764 41.5526 11.3763 41.4349 12.123L41.4263 12.1775V12.656L41.7993 12.8669C42.1134 13.0332 42.3627 13.2236 42.5541 13.4417C42.8733 13.8048 43.0796 14.2662 43.1667 14.8134C43.2567 15.3761 43.2269 16.0457 43.0796 16.8037C42.9094 17.6758 42.6343 18.4352 42.2629 19.0567C41.9212 19.6293 41.4859 20.1041 40.9692 20.4723C40.4758 20.8219 39.8896 21.0874 39.2268 21.2574C38.5844 21.4242 37.8523 21.5086 37.0491 21.5086H36.5316C36.1617 21.5086 35.8021 21.6416 35.5201 21.8802C35.2373 22.1237 35.05 22.4562 34.9927 22.8201L34.9537 23.0318L34.2987 27.1759L34.2689 27.3281C34.2611 27.3763 34.2477 27.4004 34.2279 27.4167C34.2101 27.4314 34.1846 27.4413 34.1597 27.4413H30.9648Z" fill="#253B80"/>
<path d="M42.1564 12.2334C42.1366 12.3601 42.114 12.4896 42.0885 12.6227C41.2114 17.118 38.2116 18.6709 34.3801 18.6709H32.4293C31.9608 18.6709 31.566 19.0106 31.4929 19.4721L30.4941 25.7972L30.2112 27.5899C30.1637 27.8929 30.3977 28.1661 30.7038 28.1661H34.164C34.5737 28.1661 34.9216 27.8689 34.9861 27.4655L35.0202 27.2898L35.6717 23.1619L35.7136 22.9355C35.7772 22.5307 36.126 22.2334 36.5357 22.2334H37.0532C40.4054 22.2334 43.0298 20.8744 43.7968 16.9417C44.1172 15.2989 43.9513 13.9272 43.1034 12.9624C42.8469 12.6715 42.5286 12.4302 42.1564 12.2334Z" fill="#179BD7"/>
<path d="M41.2404 11.868C41.1066 11.829 40.9682 11.7936 40.8264 11.7618C40.684 11.7307 40.5379 11.7031 40.3877 11.679C39.8616 11.5941 39.2854 11.5537 38.6679 11.5537H33.4563C33.328 11.5537 33.2062 11.5827 33.097 11.6351C32.8566 11.7505 32.6781 11.9777 32.6348 12.2559L31.526 19.2674L31.4941 19.4719C31.5672 19.0104 31.962 18.6707 32.4306 18.6707H34.3813C38.2129 18.6707 41.2129 17.1171 42.0897 12.6225C42.1158 12.4894 42.1379 12.3599 42.1576 12.2332C41.9358 12.1157 41.6955 12.0152 41.4367 11.9295C41.3731 11.9083 41.3071 11.8878 41.2404 11.868Z" fill="#222D65"/>
<path d="M32.6275 12.256C32.6708 11.9779 32.8495 11.7507 33.0897 11.636C33.1997 11.5836 33.3209 11.5546 33.449 11.5546H38.6608C39.2783 11.5546 39.8545 11.5949 40.3804 11.6799C40.5308 11.7039 40.6769 11.7315 40.8193 11.7627C40.9611 11.7945 41.0993 11.8299 41.2333 11.8688C41.2999 11.8887 41.3658 11.9092 41.4302 11.9297C41.689 12.0154 41.9294 12.1166 42.1512 12.2334C42.4122 10.5722 42.1491 9.44109 41.2497 8.41688C40.258 7.28936 38.468 6.80664 36.1777 6.80664H29.5283C29.0604 6.80664 28.6615 7.14637 28.589 7.60857L25.8196 25.1374C25.7649 25.4841 26.0328 25.7971 26.383 25.7971H30.4882L31.5189 19.2675L32.6275 12.256Z" fill="#253B80"/>
<defs>
<filter id="filter0_i_400_1357" x="0.611328" y="0.703125" width="67.8481" height="50.9778" filterUnits="userSpaceOnUse" color-interpolation-filters="sRGB">
<feFlood flood-opacity="0" result="BackgroundImageFix"/>
<feBlend mode="normal" in="SourceGraphic" in2="BackgroundImageFix" result="shape"/>
<feColorMatrix in="SourceAlpha" type="matrix" values="0 0 0 0 0 0 0 0 0 0 0 0 0 0 0 0 0 0 127 0" result="hardAlpha"/>
<feOffset dy="4.52321"/>
<feGaussianBlur stdDeviation="2.2616"/>
<feComposite in2="hardAlpha" operator="arithmetic" k2="-1" k3="1"/>
<feColorMatrix type="matrix" values="0 0 0 0 0 0 0 0 0 0 0 0 0 0 0 0 0 0 0.15 0"/>
<feBlend mode="normal" in2="shape" result="effect1_innerShadow_400_1357"/>
</filter>
</defs>
</svg>
