<svg width="69" height="48" viewBox="0 0 69 48" fill="none" xmlns="http://www.w3.org/2000/svg">
<g filter="url(#filter0_i_400_1366)">
<rect x="0.459473" y="0.703125" width="67.8482" height="46.4546" rx="4.52321" fill="white"/>
</g>
<path fill-rule="evenodd" clip-rule="evenodd" d="M21.0541 32.1735H16.9438L13.8616 20.4324C13.7153 19.8923 13.4047 19.4148 12.9478 19.1898C11.8075 18.6242 10.5509 18.1741 9.18018 17.9471V17.4951H15.8015C16.7154 17.4951 17.4007 18.1741 17.515 18.9628L19.1142 27.432L23.2225 17.4951H27.2185L21.0541 32.1735ZM29.5033 32.1735H25.6215L28.8179 17.4951H32.6997L29.5033 32.1735ZM37.7235 21.5611C37.8377 20.7706 38.5231 20.3185 39.3227 20.3185C40.5793 20.205 41.948 20.432 43.0903 20.9956L43.7757 17.8353C42.6334 17.3832 41.3769 17.1562 40.2366 17.1562C36.469 17.1562 33.7275 19.1894 33.7275 22.0112C33.7275 24.1579 35.6694 25.285 37.0401 25.9641C38.5231 26.6412 39.0943 27.0932 38.98 27.7703C38.98 28.7859 37.8377 29.2379 36.6974 29.2379C35.3267 29.2379 33.9559 28.8994 32.7014 28.3338L32.016 31.4961C33.3868 32.0597 34.8698 32.2867 36.2405 32.2867C40.465 32.3982 43.0903 30.367 43.0903 27.3182C43.0903 23.4789 37.7235 23.2538 37.7235 21.5611ZM56.6726 32.1735L53.5904 17.4951H50.2798C49.5944 17.4951 48.909 17.9472 48.6805 18.6242L42.973 32.1735H46.9691L47.7667 30.0288H52.6766L53.1335 32.1735H56.6726ZM50.8514 21.4468L51.9917 26.9788H48.7953L50.8514 21.4468Z" fill="#172B85"/>
<defs>
<filter id="filter0_i_400_1366" x="0.459473" y="0.703125" width="67.8481" height="50.9778" filterUnits="userSpaceOnUse" color-interpolation-filters="sRGB">
<feFlood flood-opacity="0" result="BackgroundImageFix"/>
<feBlend mode="normal" in="SourceGraphic" in2="BackgroundImageFix" result="shape"/>
<feColorMatrix in="SourceAlpha" type="matrix" values="0 0 0 0 0 0 0 0 0 0 0 0 0 0 0 0 0 0 127 0" result="hardAlpha"/>
<feOffset dy="4.52321"/>
<feGaussianBlur stdDeviation="2.2616"/>
<feComposite in2="hardAlpha" operator="arithmetic" k2="-1" k3="1"/>
<feColorMatrix type="matrix" values="0 0 0 0 0 0 0 0 0 0 0 0 0 0 0 0 0 0 0.15 0"/>
<feBlend mode="normal" in2="shape" result="effect1_innerShadow_400_1366"/>
</filter>
</defs>
</svg>
