<svg width="159" height="159" viewBox="0 0 159 159" fill="none" xmlns="http://www.w3.org/2000/svg">
<rect width="159" height="159" rx="10" fill="#008069"/>
<g clip-path="url(#clip0_251_1822)">
<path d="M89.6736 84.763C92.1246 84.763 94.1116 80.6923 94.1116 75.6709C94.1116 70.6495 92.1246 66.5788 89.6736 66.5788C87.2226 66.5788 85.2357 70.6495 85.2357 75.6709C85.2357 80.6923 87.2226 84.763 89.6736 84.763Z" fill="white"/>
<path d="M66.2387 75.282C66.2908 75.8452 66.3198 76.4258 66.3198 77.0238C66.3198 82.046 64.3326 86.1159 61.8818 86.1159C59.4311 86.1159 57.4439 82.046 57.4439 77.0238C57.4439 76.4258 57.4728 75.8452 57.525 75.282H66.2387Z" fill="white"/>
<path d="M81.7592 64.2565C81.3826 64.2565 81.0292 64.0359 80.8727 63.6701C80.6642 63.1766 80.8901 62.6076 81.3826 62.3986C83.8333 61.3477 86.4289 60.802 89.0882 60.7729C91.8517 60.7381 94.6559 61.3071 97.1993 62.3986C97.6918 62.6076 97.9177 63.1766 97.7091 63.6701C97.5006 64.1636 96.9328 64.39 96.4403 64.181C94.1402 63.194 91.6026 62.6831 89.1055 62.7121C86.7012 62.7353 84.3547 63.2289 82.1416 64.181C82.0141 64.2333 81.8866 64.2565 81.7592 64.2565Z" fill="white"/>
<path d="M69.1642 69.865H54.3498C53.9211 69.865 53.5793 69.5167 53.5793 69.0928C53.5793 68.6632 53.9269 68.3207 54.3498 68.3207H69.17C69.5987 68.3207 69.9406 68.669 69.9406 69.0928C69.9406 69.5225 69.593 69.865 69.1642 69.865Z" fill="white"/>
<path d="M104.621 104.103H47.7041C42.5362 104.103 38.3299 99.8874 38.3299 94.7085V56.6273C38.3242 51.4484 42.5304 47.2333 47.7041 47.2333H104.621C109.789 47.2333 113.995 51.4484 113.995 56.6273V94.7085C113.995 99.8874 109.789 104.103 104.621 104.103ZM47.7041 48.3945C43.1735 48.3945 39.4829 52.0871 39.4829 56.6273V94.7085C39.4829 99.2488 43.1677 102.947 47.7041 102.947H104.621C109.152 102.947 112.842 99.2546 112.842 94.7085V56.6273C112.842 52.0871 109.158 48.3887 104.621 48.3887H47.7041V48.3945Z" fill="white"/>
<path d="M125.114 115.831L113.625 110.083C111.597 109.067 109.297 108.556 106.782 108.556C106.765 108.556 106.742 108.556 106.724 108.556H44.8539C38.8053 108.556 33.8864 103.621 33.8864 97.5594V54.16C33.8864 48.0986 38.8053 43.1693 44.8539 43.1693H106.69C112.738 43.1693 117.657 48.0986 117.657 54.16V97.5594C117.651 99.7482 118.092 101.734 118.972 103.499L125.114 115.831ZM106.759 107.006C109.54 107.006 112.072 107.575 114.32 108.695L121.678 112.376L117.599 104.19C116.614 102.21 116.116 99.9863 116.122 97.5884V54.16C116.122 48.952 111.892 44.7137 106.695 44.7137H44.8539C39.6569 44.7137 35.4276 48.952 35.4276 54.16V97.5594C35.4276 102.767 39.6569 107.006 44.8539 107.006H106.69C106.713 107.006 106.736 107.006 106.759 107.006Z" fill="white"/>
</g>
<defs>
<clipPath id="clip0_251_1822">
<rect width="91.2271" height="72.6614" fill="white" transform="translate(33.8864 43.1693)"/>
</clipPath>
</defs>
</svg>
