<svg width="157" height="38" viewBox="0 0 157 38" fill="none" xmlns="http://www.w3.org/2000/svg">
<path d="M48.913 37.5L42.7531 34.5336C41.6659 34.0092 40.4326 33.7455 39.0845 33.7455C39.0751 33.7455 39.0627 33.7455 39.0534 33.7455H5.88038C2.63732 33.7455 0 31.1986 0 28.0703V5.67219C0 2.54395 2.63732 0 5.88038 0H39.0348C42.2778 0 44.9151 2.54395 44.9151 5.67219V28.0703C44.912 29.2 45.1481 30.2247 45.6203 31.1356L48.913 37.5ZM39.072 32.9455C40.5631 32.9455 41.9206 33.2391 43.1259 33.8174L47.071 35.7171L44.8841 31.4922C44.356 30.4704 44.0888 29.3228 44.0919 28.0853V5.67219C44.0919 2.98442 41.8243 0.797044 39.0379 0.797044H5.88038C3.09395 0.797044 0.826297 2.98442 0.826297 5.67219V28.0703C0.826297 30.7581 3.09395 32.9455 5.88038 32.9455H39.0348C39.0472 32.9455 39.0596 32.9455 39.072 32.9455Z" fill="#008069"/>
<path d="M75.775 11.81L71.735 25.75H69.695L66.455 14.53L63.095 25.75L61.075 25.77L57.175 11.81H59.115L62.155 23.63L65.515 11.81H67.555L70.755 23.59L73.815 11.81H75.775ZM83.0068 14.59C83.8334 14.59 84.5801 14.77 85.2468 15.13C85.9134 15.4767 86.4334 16.0033 86.8068 16.71C87.1934 17.4167 87.3868 18.2767 87.3868 19.29V25.75H85.5868V19.55C85.5868 18.4567 85.3134 17.6233 84.7668 17.05C84.2201 16.4633 83.4734 16.17 82.5268 16.17C81.5668 16.17 80.8001 16.47 80.2268 17.07C79.6668 17.67 79.3868 18.5433 79.3868 19.69V25.75H77.5668V10.95H79.3868V16.35C79.7468 15.79 80.2401 15.3567 80.8668 15.05C81.5068 14.7433 82.2201 14.59 83.0068 14.59ZM89.4797 20.23C89.4797 19.11 89.7064 18.13 90.1597 17.29C90.6131 16.4367 91.2331 15.7767 92.0197 15.31C92.8197 14.8433 93.7064 14.61 94.6797 14.61C95.6397 14.61 96.4731 14.8167 97.1797 15.23C97.8864 15.6433 98.4131 16.1633 98.7597 16.79V14.79H100.6V25.75H98.7597V23.71C98.3997 24.35 97.8597 24.8833 97.1397 25.31C96.4331 25.7233 95.6064 25.93 94.6597 25.93C93.6864 25.93 92.8064 25.69 92.0197 25.21C91.2331 24.73 90.6131 24.0567 90.1597 23.19C89.7064 22.3233 89.4797 21.3367 89.4797 20.23ZM98.7597 20.25C98.7597 19.4233 98.5931 18.7033 98.2597 18.09C97.9264 17.4767 97.4731 17.01 96.8997 16.69C96.3397 16.3567 95.7197 16.19 95.0397 16.19C94.3597 16.19 93.7397 16.35 93.1797 16.67C92.6197 16.99 92.1731 17.4567 91.8397 18.07C91.5064 18.6833 91.3397 19.4033 91.3397 20.23C91.3397 21.07 91.5064 21.8033 91.8397 22.43C92.1731 23.0433 92.6197 23.5167 93.1797 23.85C93.7397 24.17 94.3597 24.33 95.0397 24.33C95.7197 24.33 96.3397 24.17 96.8997 23.85C97.4731 23.5167 97.9264 23.0433 98.2597 22.43C98.5931 21.8033 98.7597 21.0767 98.7597 20.25ZM105.695 16.29V22.75C105.695 23.2833 105.809 23.6633 106.035 23.89C106.262 24.1033 106.655 24.21 107.215 24.21H108.555V25.75H106.915C105.902 25.75 105.142 25.5167 104.635 25.05C104.129 24.5833 103.875 23.8167 103.875 22.75V16.29H102.455V14.79H103.875V12.03H105.695V14.79H108.555V16.29H105.695ZM114.441 25.93C113.601 25.93 112.847 25.79 112.181 25.51C111.514 25.2167 110.987 24.8167 110.601 24.31C110.214 23.79 110.001 23.1967 109.961 22.53H111.841C111.894 23.0767 112.147 23.5233 112.601 23.87C113.067 24.2167 113.674 24.39 114.421 24.39C115.114 24.39 115.661 24.2367 116.061 23.93C116.461 23.6233 116.661 23.2367 116.661 22.77C116.661 22.29 116.447 21.9367 116.021 21.71C115.594 21.47 114.934 21.2367 114.041 21.01C113.227 20.7967 112.561 20.5833 112.041 20.37C111.534 20.1433 111.094 19.8167 110.721 19.39C110.361 18.95 110.181 18.3767 110.181 17.67C110.181 17.11 110.347 16.5967 110.681 16.13C111.014 15.6633 111.487 15.2967 112.101 15.03C112.714 14.75 113.414 14.61 114.201 14.61C115.414 14.61 116.394 14.9167 117.141 15.53C117.887 16.1433 118.287 16.9833 118.341 18.05H116.521C116.481 17.4767 116.247 17.0167 115.821 16.67C115.407 16.3233 114.847 16.15 114.141 16.15C113.487 16.15 112.967 16.29 112.581 16.57C112.194 16.85 112.001 17.2167 112.001 17.67C112.001 18.03 112.114 18.33 112.341 18.57C112.581 18.7967 112.874 18.9833 113.221 19.13C113.581 19.2633 114.074 19.4167 114.701 19.59C115.487 19.8033 116.127 20.0167 116.621 20.23C117.114 20.43 117.534 20.7367 117.881 21.15C118.241 21.5633 118.427 22.1033 118.441 22.77C118.441 23.37 118.274 23.91 117.941 24.39C117.607 24.87 117.134 25.25 116.521 25.53C115.921 25.7967 115.227 25.93 114.441 25.93ZM123.03 16.29V22.75C123.03 23.2833 123.143 23.6633 123.37 23.89C123.596 24.1033 123.99 24.21 124.55 24.21H125.89V25.75H124.25C123.236 25.75 122.476 25.5167 121.97 25.05C121.463 24.5833 121.21 23.8167 121.21 22.75V16.29H119.79V14.79H121.21V12.03H123.03V14.79H125.89V16.29H123.03ZM129.715 16.57C130.035 15.9433 130.488 15.4567 131.075 15.11C131.675 14.7633 132.402 14.59 133.255 14.59V16.47H132.775C130.735 16.47 129.715 17.5767 129.715 19.79V25.75H127.895V14.79H129.715V16.57ZM145.156 19.85C145.156 20.1967 145.136 20.5633 145.096 20.95H136.336C136.402 22.03 136.769 22.8767 137.436 23.49C138.116 24.09 138.936 24.39 139.896 24.39C140.682 24.39 141.336 24.21 141.856 23.85C142.389 23.4767 142.762 22.9833 142.976 22.37H144.936C144.642 23.4233 144.056 24.2833 143.176 24.95C142.296 25.6033 141.202 25.93 139.896 25.93C138.856 25.93 137.922 25.6967 137.096 25.23C136.282 24.7633 135.642 24.1033 135.176 23.25C134.709 22.3833 134.476 21.3833 134.476 20.25C134.476 19.1167 134.702 18.1233 135.156 17.27C135.609 16.4167 136.242 15.7633 137.056 15.31C137.882 14.8433 138.829 14.61 139.896 14.61C140.936 14.61 141.856 14.8367 142.656 15.29C143.456 15.7433 144.069 16.37 144.496 17.17C144.936 17.9567 145.156 18.85 145.156 19.85ZM143.276 19.47C143.276 18.7767 143.122 18.1833 142.816 17.69C142.509 17.1833 142.089 16.8033 141.556 16.55C141.036 16.2833 140.456 16.15 139.816 16.15C138.896 16.15 138.109 16.4433 137.456 17.03C136.816 17.6167 136.449 18.43 136.356 19.47H143.276ZM153.478 25.75L149.178 20.91V25.75H147.358V10.95H149.178V19.65L153.398 14.79H155.938L150.778 20.25L155.958 25.75H153.478Z" fill="#008069"/>
<path d="M29.8589 21.466C31.1709 21.466 32.2345 19.3652 32.2345 16.7737C32.2345 14.1821 31.1709 12.0813 29.8589 12.0813C28.547 12.0813 27.4834 14.1821 27.4834 16.7737C27.4834 19.3652 28.547 21.466 29.8589 21.466Z" fill="#008069"/>
<path d="M17.316 16.5735C17.344 16.8641 17.3595 17.1638 17.3595 17.4724C17.3595 20.0643 16.2957 22.1648 14.9839 22.1648C13.6721 22.1648 12.6084 20.0643 12.6084 17.4724C12.6084 17.1638 12.6239 16.8641 12.6518 16.5735H17.316Z" fill="#008069"/>
<path d="M25.6244 10.8831C25.4228 10.8831 25.2337 10.7692 25.1499 10.5805C25.0383 10.3258 25.1592 10.0321 25.4228 9.92424C26.7347 9.3819 28.124 9.10023 29.5474 9.08525C31.0267 9.06727 32.5277 9.36092 33.8891 9.92424C34.1528 10.0321 34.2737 10.3258 34.1621 10.5805C34.0504 10.8352 33.7465 10.952 33.4829 10.8441C32.2517 10.3348 30.8934 10.0711 29.5568 10.0861C28.2697 10.098 27.0138 10.3527 25.8291 10.8441C25.7609 10.8711 25.6926 10.8831 25.6244 10.8831Z" fill="#008069"/>
<path d="M18.8823 13.7775H10.9525C10.723 13.7775 10.54 13.5977 10.54 13.379C10.54 13.1573 10.7261 12.9805 10.9525 12.9805H18.8854C19.1149 12.9805 19.2979 13.1603 19.2979 13.379C19.2979 13.6007 19.1118 13.7775 18.8823 13.7775Z" fill="#008069"/>
<path d="M37.862 31.4474H7.3957C4.62941 31.4474 2.37793 29.272 2.37793 26.5993V6.94584C2.37483 4.27305 4.62631 2.09766 7.3957 2.09766H37.862C40.6283 2.09766 42.8798 4.27305 42.8798 6.94584V26.5993C42.8798 29.272 40.6283 31.4474 37.862 31.4474ZM7.3957 2.69694C4.97055 2.69694 2.99507 4.60265 2.99507 6.94584V26.5993C2.99507 28.9424 4.96745 30.8512 7.3957 30.8512H37.862C40.2872 30.8512 42.2626 28.9454 42.2626 26.5993V6.94584C42.2626 4.60265 40.2903 2.69394 37.862 2.69394H7.3957V2.69694Z" fill="#008069"/>
</svg>
