<svg width="294" height="82" viewBox="0 0 294 82" fill="none" xmlns="http://www.w3.org/2000/svg">
<g clip-path="url(#clip0_418_4269)">
<path d="M62.6372 46.7015C65.3892 46.7015 67.6202 42.1309 67.6202 36.4928C67.6202 30.8547 65.3892 26.2842 62.6372 26.2842C59.8852 26.2842 57.6543 30.8547 57.6543 36.4928C57.6543 42.1309 59.8852 46.7015 62.6372 46.7015Z" fill="white"/>
<path d="M36.324 36.0562C36.3826 36.6885 36.4151 37.3404 36.4151 38.0118C36.4151 43.6507 34.1838 48.2205 31.4322 48.2205C28.6805 48.2205 26.4492 43.6507 26.4492 38.0118C26.4492 37.3404 26.4817 36.6885 26.5403 36.0562H36.324Z" fill="white"/>
<path d="M53.7513 23.6762C53.3285 23.6762 52.9317 23.4285 52.7561 23.0178C52.5219 22.4637 52.7756 21.8249 53.3285 21.5902C56.0802 20.4103 58.9945 19.7975 61.9804 19.7649C65.0833 19.7258 68.2318 20.3646 71.0876 21.5902C71.6405 21.8249 71.8942 22.4637 71.66 23.0178C71.4258 23.5719 70.7883 23.8262 70.2354 23.5915C67.6529 22.4833 64.8036 21.9096 61.9999 21.9422C59.3002 21.9683 56.6657 22.5224 54.1807 23.5915C54.0376 23.6502 53.8945 23.6762 53.7513 23.6762Z" fill="white"/>
<path d="M39.6082 29.9738H22.9746C22.4932 29.9738 22.1094 29.5826 22.1094 29.1068C22.1094 28.6244 22.4997 28.2397 22.9746 28.2397H39.6147C40.0961 28.2397 40.4799 28.6309 40.4799 29.1068C40.4799 29.5892 40.0896 29.9738 39.6082 29.9738Z" fill="white"/>
<path d="M79.4202 68.4161H15.5136C9.71103 68.4161 4.98829 63.6834 4.98829 57.8685V15.1109C4.98178 9.29597 9.70452 4.56323 15.5136 4.56323H79.4202C85.2228 4.56323 89.9455 9.29597 89.9455 15.1109V57.8685C89.9455 63.6834 85.2228 68.4161 79.4202 68.4161ZM15.5136 5.86702C10.4266 5.86702 6.28281 10.0131 6.28281 15.1109V57.8685C6.28281 62.9663 10.4201 67.1189 15.5136 67.1189H79.4202C84.5072 67.1189 88.651 62.9728 88.651 57.8685V15.1109C88.651 10.0131 84.5137 5.8605 79.4202 5.8605H15.5136V5.86702Z" fill="white"/>
<path d="M102.43 81.5844L89.5304 75.1306C87.2536 73.9898 84.671 73.4162 81.8478 73.4162C81.8283 73.4162 81.8022 73.4162 81.7827 73.4162H12.3142C5.52287 73.4162 0 67.8751 0 61.0693V12.3403C0 5.53457 5.52287 0 12.3142 0H81.7437C88.5351 0 94.0579 5.53457 94.0579 12.3403V61.0693C94.0514 63.5269 94.5458 65.7564 95.5346 67.7382L102.43 81.5844ZM81.8218 71.6756C84.9442 71.6756 87.787 72.3145 90.311 73.5726L98.5725 77.7056L93.9929 68.5139C92.887 66.291 92.3276 63.7942 92.3341 61.1019V12.3403C92.3341 6.49285 87.5853 1.73403 81.7502 1.73403H12.3142C6.47913 1.73403 1.73037 6.49285 1.73037 12.3403V61.0693C1.73037 66.9168 6.47913 71.6756 12.3142 71.6756H81.7437C81.7697 71.6756 81.7957 71.6756 81.8218 71.6756Z" fill="white"/>
<path d="M131.475 52.2922L124.056 30.098H127.321L134.138 50.5801H132.489L139.56 30.098H142.477L149.389 50.5801H147.803L154.715 30.098H157.727L150.308 52.2922H146.979L140.511 33.3003H141.367L134.867 52.2922H131.475ZM170.599 35.3295C171.973 35.3295 173.178 35.5937 174.214 36.1222C175.271 36.6506 176.095 37.4538 176.687 38.5318C177.279 39.6098 177.575 40.9732 177.575 42.6219V52.2922H174.531V42.9707C174.531 41.3431 174.129 40.1171 173.326 39.2928C172.544 38.4684 171.434 38.0562 169.997 38.0562C168.919 38.0562 167.978 38.2676 167.175 38.6904C166.372 39.1131 165.748 39.7367 165.304 40.561C164.882 41.3854 164.67 42.4105 164.67 43.6365V52.2922H161.626V28.7664H164.67V40.022L164.068 38.8172C164.617 37.718 165.463 36.862 166.604 36.249C167.746 35.636 169.077 35.3295 170.599 35.3295ZM193.639 52.2922V48.7412L193.48 48.0753V42.0195C193.48 40.7301 193.1 39.7367 192.339 39.0391C191.599 38.3205 190.479 37.9611 188.978 37.9611C187.985 37.9611 187.012 38.1302 186.061 38.4684C185.11 38.7855 184.307 39.2188 183.652 39.7684L182.383 37.4855C183.25 36.788 184.286 36.2596 185.49 35.9002C186.716 35.5198 187.995 35.3295 189.327 35.3295C191.631 35.3295 193.406 35.8897 194.653 37.0099C195.901 38.1302 196.524 39.8423 196.524 42.1463V52.2922H193.639ZM188.122 52.4825C186.875 52.4825 185.776 52.2711 184.825 51.8484C183.895 51.4256 183.176 50.8443 182.669 50.1045C182.161 49.3436 181.908 48.4875 181.908 47.5363C181.908 46.6274 182.119 45.8031 182.542 45.0633C182.986 44.3235 183.694 43.7316 184.666 43.2877C185.66 42.8438 186.991 42.6219 188.661 42.6219H193.988V44.8096H188.788C187.266 44.8096 186.241 45.0633 185.712 45.5706C185.184 46.0779 184.92 46.6908 184.92 47.4095C184.92 48.2339 185.247 48.8997 185.903 49.407C186.558 49.8931 187.467 50.1362 188.629 50.1362C189.771 50.1362 190.764 49.8826 191.61 49.3753C192.476 48.868 193.1 48.1282 193.48 47.1559L194.083 49.2485C193.681 50.2419 192.973 51.0346 191.958 51.6264C190.944 52.1971 189.665 52.4825 188.122 52.4825ZM207.927 52.4825C206.236 52.4825 204.926 52.028 203.996 51.1191C203.066 50.2102 202.601 48.9103 202.601 47.2193V31.8102H205.645V47.0925C205.645 48.0014 205.867 48.6989 206.31 49.185C206.775 49.6712 207.431 49.9143 208.276 49.9143C209.227 49.9143 210.02 49.6501 210.654 49.1216L211.605 51.3094C211.14 51.711 210.58 52.0069 209.925 52.1971C209.291 52.3874 208.625 52.4825 207.927 52.4825ZM199.747 37.9928V35.4881H210.464V37.9928H199.747ZM220.105 52.4825C218.709 52.4825 217.378 52.2922 216.11 51.9118C214.862 51.5313 213.88 51.0663 213.161 50.5167L214.429 48.107C215.148 48.5932 216.036 49.0054 217.092 49.3436C218.149 49.6818 219.227 49.8509 220.326 49.8509C221.743 49.8509 222.757 49.6501 223.37 49.2485C224.004 48.8468 224.321 48.2867 224.321 47.568C224.321 47.0396 224.131 46.6274 223.751 46.3315C223.37 46.0356 222.863 45.8136 222.229 45.6657C221.616 45.5177 220.929 45.3909 220.168 45.2852C219.407 45.1584 218.646 45.0104 217.885 44.8413C217.124 44.6511 216.427 44.3974 215.792 44.0804C215.158 43.7422 214.651 43.2877 214.271 42.717C213.89 42.1252 213.7 41.3431 213.7 40.3708C213.7 39.3562 213.985 38.4684 214.556 37.7075C215.127 36.9465 215.93 36.3653 216.966 35.9636C218.022 35.5409 219.27 35.3295 220.707 35.3295C221.806 35.3295 222.916 35.4669 224.036 35.7417C225.177 35.9953 226.108 36.3652 226.826 36.8514L225.526 39.2611C224.765 38.7538 223.973 38.405 223.148 38.2148C222.324 38.0245 221.5 37.9294 220.675 37.9294C219.344 37.9294 218.35 38.1514 217.695 38.5952C217.04 39.018 216.712 39.5676 216.712 40.244C216.712 40.8147 216.902 41.2585 217.283 41.5756C217.684 41.8715 218.192 42.104 218.805 42.2731C219.439 42.4422 220.136 42.5902 220.897 42.717C221.658 42.8227 222.419 42.9707 223.18 43.1609C223.941 43.33 224.628 43.5731 225.241 43.8901C225.875 44.2072 226.382 44.6511 226.763 45.2218C227.164 45.7925 227.365 46.5534 227.365 47.5046C227.365 48.5192 227.069 49.3964 226.477 50.1362C225.886 50.876 225.051 51.4573 223.973 51.8801C222.895 52.2817 221.605 52.4825 220.105 52.4825ZM236.94 52.4825C235.249 52.4825 233.938 52.028 233.008 51.1191C232.078 50.2102 231.613 48.9103 231.613 47.2193V31.8102H234.657V47.0925C234.657 48.0014 234.879 48.6989 235.323 49.185C235.788 49.6712 236.443 49.9143 237.288 49.9143C238.24 49.9143 239.032 49.6501 239.666 49.1216L240.618 51.3094C240.153 51.711 239.592 52.0069 238.937 52.1971C238.303 52.3874 237.637 52.4825 236.94 52.4825ZM228.76 37.9928V35.4881H239.476V37.9928H228.76ZM244.297 52.2922V35.4881H247.214V40.0537L246.929 38.9123C247.394 37.7497 248.176 36.862 249.275 36.249C250.374 35.636 251.727 35.3295 253.334 35.3295V38.2782C253.207 38.257 253.08 38.2465 252.953 38.2465C252.847 38.2465 252.742 38.2465 252.636 38.2465C251.009 38.2465 249.719 38.7326 248.768 39.705C247.817 40.6773 247.341 42.0829 247.341 43.9219V52.2922H244.297ZM264.413 52.4825C262.616 52.4825 261.031 52.1126 259.657 51.3728C258.304 50.633 257.247 49.6184 256.486 48.329C255.747 47.0396 255.377 45.56 255.377 43.8901C255.377 42.2203 255.736 40.7407 256.455 39.4513C257.195 38.1619 258.199 37.1579 259.467 36.4392C260.756 35.6994 262.204 35.3295 263.81 35.3295C265.438 35.3295 266.875 35.6889 268.123 36.4075C269.37 37.1262 270.342 38.1408 271.039 39.4513C271.758 40.7407 272.117 42.252 272.117 43.9853C272.117 44.1121 272.107 44.26 272.086 44.4291C272.086 44.5982 272.075 44.7568 272.054 44.9047H257.755V42.717H270.469L269.232 43.478C269.253 42.4 269.031 41.4382 268.566 40.5927C268.101 39.7472 267.457 39.092 266.632 38.6269C265.829 38.1408 264.888 37.8977 263.81 37.8977C262.754 37.8977 261.813 38.1408 260.989 38.6269C260.164 39.092 259.52 39.7578 259.055 40.6244C258.59 41.4699 258.357 42.4422 258.357 43.5414V44.0487C258.357 45.169 258.611 46.173 259.118 47.0607C259.646 47.9274 260.376 48.6038 261.306 49.0899C262.236 49.5761 263.303 49.8192 264.508 49.8192C265.501 49.8192 266.4 49.6501 267.203 49.3119C268.027 48.9737 268.746 48.4664 269.359 47.79L271.039 49.7558C270.279 50.6435 269.327 51.3199 268.186 51.7849C267.066 52.25 265.808 52.4825 264.413 52.4825ZM278.817 48.2339L278.881 44.334L288.551 35.4881H292.229L284.81 42.7804L283.161 44.1755L278.817 48.2339ZM276.344 52.2922V28.7664H279.388V52.2922H276.344ZM289.185 52.2922L282.59 44.1121L284.556 41.6707L292.926 52.2922H289.185Z" fill="white"/>
</g>
<defs>
<clipPath id="clip0_418_4269">
<rect width="293.041" height="81.5844" fill="white"/>
</clipPath>
</defs>
</svg>
