<svg width="156" height="38" viewBox="0 0 156 38" fill="none" xmlns="http://www.w3.org/2000/svg">
<path d="M48.913 37.5L42.7531 34.5336C41.6659 34.0092 40.4326 33.7455 39.0845 33.7455C39.0751 33.7455 39.0627 33.7455 39.0534 33.7455H5.88038C2.63732 33.7455 0 31.1986 0 28.0703V5.67219C0 2.54395 2.63732 0 5.88038 0H39.0348C42.2778 0 44.9151 2.54395 44.9151 5.67219V28.0703C44.912 29.2 45.1481 30.2247 45.6203 31.1356L48.913 37.5ZM39.072 32.9455C40.5631 32.9455 41.9206 33.2391 43.1259 33.8174L47.071 35.7171L44.8841 31.4922C44.356 30.4704 44.0888 29.3228 44.0919 28.0853V5.67219C44.0919 2.98442 41.8243 0.797044 39.0379 0.797044H5.88038C3.09395 0.797044 0.826297 2.98442 0.826297 5.67219V28.0703C0.826297 30.7581 3.09395 32.9455 5.88038 32.9455H39.0348C39.0472 32.9455 39.0596 32.9455 39.072 32.9455Z" fill="#008069"/>
<path d="M29.8599 21.4658C31.1719 21.4658 32.2354 19.3649 32.2354 16.7734C32.2354 14.1819 31.1719 12.0811 29.8599 12.0811C28.5479 12.0811 27.4844 14.1819 27.4844 16.7734C27.4844 19.3649 28.5479 21.4658 29.8599 21.4658Z" fill="#008069"/>
<path d="M17.317 16.5732C17.3449 16.8639 17.3604 17.1635 17.3604 17.4722C17.3604 20.0641 16.2967 22.1645 14.9849 22.1645C13.6731 22.1645 12.6094 20.0641 12.6094 17.4722C12.6094 17.1635 12.6249 16.8639 12.6528 16.5732H17.317Z" fill="#008069"/>
<path d="M25.6254 10.8826C25.4238 10.8826 25.2346 10.7687 25.1509 10.58C25.0393 10.3253 25.1602 10.0316 25.4238 9.92376C26.7356 9.38141 28.125 9.09975 29.5484 9.08476C31.0277 9.06678 32.5287 9.36043 33.8901 9.92376C34.1537 10.0316 34.2747 10.3253 34.163 10.58C34.0514 10.8347 33.7475 10.9515 33.4839 10.8437C32.2527 10.3343 30.8944 10.0706 29.5577 10.0856C28.2707 10.0975 27.0147 10.3522 25.8301 10.8437C25.7618 10.8706 25.6936 10.8826 25.6254 10.8826Z" fill="#008069"/>
<path d="M18.8813 13.7775H10.9515C10.722 13.7775 10.5391 13.5977 10.5391 13.379C10.5391 13.1573 10.7251 12.9805 10.9515 12.9805H18.8844C19.1139 12.9805 19.2969 13.1603 19.2969 13.379C19.2969 13.6007 19.1108 13.7775 18.8813 13.7775Z" fill="#008069"/>
<path d="M37.863 31.4474H7.39667C4.63039 31.4474 2.37891 29.272 2.37891 26.5993V6.94584C2.37581 4.27305 4.62729 2.09766 7.39667 2.09766H37.863C40.6293 2.09766 42.8808 4.27305 42.8808 6.94584V26.5993C42.8808 29.272 40.6293 31.4474 37.863 31.4474ZM7.39667 2.69694C4.97152 2.69694 2.99605 4.60265 2.99605 6.94584V26.5993C2.99605 28.9424 4.96842 30.8512 7.39667 30.8512H37.863C40.2881 30.8512 42.2636 28.9454 42.2636 26.5993V6.94584C42.2636 4.60265 40.2912 2.69394 37.863 2.69394H7.39667V2.69694Z" fill="#008069"/>
<path d="M78.4188 12.204L74.7828 24.75H72.9468L70.0308 14.652L67.0068 24.75L65.1888 24.768L61.6788 12.204H63.4248L66.1608 22.842L69.1848 12.204H71.0208L73.9008 22.806L76.6548 12.204H78.4188ZM84.9074 14.706C85.6514 14.706 86.3234 14.868 86.9234 15.192C87.5234 15.504 87.9914 15.978 88.3274 16.614C88.6754 17.25 88.8494 18.024 88.8494 18.936V24.75H87.2294V19.17C87.2294 18.186 86.9834 17.436 86.4914 16.92C85.9994 16.392 85.3274 16.128 84.4754 16.128C83.6114 16.128 82.9214 16.398 82.4054 16.938C81.9014 17.478 81.6494 18.264 81.6494 19.296V24.75H80.0114V11.43H81.6494V16.29C81.9734 15.786 82.4174 15.396 82.9814 15.12C83.5574 14.844 84.1994 14.706 84.9074 14.706ZM90.7131 19.782C90.7131 18.774 90.9171 17.892 91.3251 17.136C91.7331 16.368 92.2911 15.774 92.9991 15.354C93.7191 14.934 94.5171 14.724 95.3931 14.724C96.2571 14.724 97.0071 14.91 97.6431 15.282C98.2791 15.654 98.7531 16.122 99.0651 16.686V14.886H100.721V24.75H99.0651V22.914C98.7411 23.49 98.2551 23.97 97.6071 24.354C96.9711 24.726 96.2271 24.912 95.3751 24.912C94.4991 24.912 93.7071 24.696 92.9991 24.264C92.2911 23.832 91.7331 23.226 91.3251 22.446C90.9171 21.666 90.7131 20.778 90.7131 19.782ZM99.0651 19.8C99.0651 19.056 98.9151 18.408 98.6151 17.856C98.3151 17.304 97.9071 16.884 97.3911 16.596C96.8871 16.296 96.3291 16.146 95.7171 16.146C95.1051 16.146 94.5471 16.29 94.0431 16.578C93.5391 16.866 93.1371 17.286 92.8371 17.838C92.5371 18.39 92.3871 19.038 92.3871 19.782C92.3871 20.538 92.5371 21.198 92.8371 21.762C93.1371 22.314 93.5391 22.74 94.0431 23.04C94.5471 23.328 95.1051 23.472 95.7171 23.472C96.3291 23.472 96.8871 23.328 97.3911 23.04C97.9071 22.74 98.3151 22.314 98.6151 21.762C98.9151 21.198 99.0651 20.544 99.0651 19.8ZM105.287 16.236V22.05C105.287 22.53 105.389 22.872 105.593 23.076C105.797 23.268 106.151 23.364 106.655 23.364H107.861V24.75H106.385C105.473 24.75 104.789 24.54 104.333 24.12C103.877 23.7 103.649 23.01 103.649 22.05V16.236H102.371V14.886H103.649V12.402H105.287V14.886H107.861V16.236H105.287ZM113.138 24.912C112.382 24.912 111.704 24.786 111.104 24.534C110.504 24.27 110.03 23.91 109.682 23.454C109.334 22.986 109.142 22.452 109.106 21.852H110.798C110.846 22.344 111.074 22.746 111.482 23.058C111.902 23.37 112.448 23.526 113.12 23.526C113.744 23.526 114.236 23.388 114.596 23.112C114.956 22.836 115.136 22.488 115.136 22.068C115.136 21.636 114.944 21.318 114.56 21.114C114.176 20.898 113.582 20.688 112.778 20.484C112.046 20.292 111.446 20.1 110.978 19.908C110.522 19.704 110.126 19.41 109.79 19.026C109.466 18.63 109.304 18.114 109.304 17.478C109.304 16.974 109.454 16.512 109.754 16.092C110.054 15.672 110.48 15.342 111.032 15.102C111.584 14.85 112.214 14.724 112.922 14.724C114.014 14.724 114.896 15 115.568 15.552C116.24 16.104 116.6 16.86 116.648 17.82H115.01C114.974 17.304 114.764 16.89 114.38 16.578C114.008 16.266 113.504 16.11 112.868 16.11C112.28 16.11 111.812 16.236 111.464 16.488C111.116 16.74 110.942 17.07 110.942 17.478C110.942 17.802 111.044 18.072 111.248 18.288C111.464 18.492 111.728 18.66 112.04 18.792C112.364 18.912 112.808 19.05 113.372 19.206C114.08 19.398 114.656 19.59 115.1 19.782C115.544 19.962 115.922 20.238 116.234 20.61C116.558 20.982 116.726 21.468 116.738 22.068C116.738 22.608 116.588 23.094 116.288 23.526C115.988 23.958 115.562 24.3 115.01 24.552C114.47 24.792 113.846 24.912 113.138 24.912ZM120.848 16.236V22.05C120.848 22.53 120.95 22.872 121.154 23.076C121.358 23.268 121.712 23.364 122.216 23.364H123.422V24.75H121.946C121.034 24.75 120.35 24.54 119.894 24.12C119.438 23.7 119.21 23.01 119.21 22.05V16.236H117.932V14.886H119.21V12.402H120.848V14.886H123.422V16.236H120.848ZM126.845 16.488C127.133 15.924 127.541 15.486 128.069 15.174C128.609 14.862 129.263 14.706 130.031 14.706V16.398H129.599C127.763 16.398 126.845 17.394 126.845 19.386V24.75H125.207V14.886H126.845V16.488ZM140.722 19.44C140.722 19.752 140.704 20.082 140.668 20.43H132.784C132.844 21.402 133.174 22.164 133.774 22.716C134.386 23.256 135.124 23.526 135.988 23.526C136.696 23.526 137.284 23.364 137.752 23.04C138.232 22.704 138.568 22.26 138.76 21.708H140.524C140.26 22.656 139.732 23.43 138.94 24.03C138.148 24.618 137.164 24.912 135.988 24.912C135.052 24.912 134.212 24.702 133.468 24.282C132.736 23.862 132.16 23.268 131.74 22.5C131.32 21.72 131.11 20.82 131.11 19.8C131.11 18.78 131.314 17.886 131.722 17.118C132.13 16.35 132.7 15.762 133.432 15.354C134.176 14.934 135.028 14.724 135.988 14.724C136.924 14.724 137.752 14.928 138.472 15.336C139.192 15.744 139.744 16.308 140.128 17.028C140.524 17.736 140.722 18.54 140.722 19.44ZM139.03 19.098C139.03 18.474 138.892 17.94 138.616 17.496C138.34 17.04 137.962 16.698 137.482 16.47C137.014 16.23 136.492 16.11 135.916 16.11C135.088 16.11 134.38 16.374 133.792 16.902C133.216 17.43 132.886 18.162 132.802 19.098H139.03ZM148.192 24.75L144.322 20.394V24.75H142.684V11.43H144.322V19.26L148.12 14.886H150.406L145.762 19.8L150.424 24.75H148.192Z" fill="#008069"/>
</svg>
